<svg
      xmlns="http://www.w3.org/2000/svg"
      width="100.333"
      height="30.667"
      viewBox="0 0 232 65"
    >
      <path
        d="M123.2 3c-7.3 5.2-17.9 20.3-26.5 37.6C93.2 47.5 86.4 55 83.6 55c-1 0-.4-1.7 1.9-5.6 3.8-6.3 5.3-13.3 3.6-17-.9-2-1.8-2.4-5.7-2.4-5.5 0-10.1 2.5-12.7 6.9-.9 1.6-2.6 3.3-3.6 3.6-1.1.3-2.8 2-3.8 3.8C60.5 48.9 50 60 48.4 60c-2.3 0-1.7-1.8 3.8-11.3 7.2-12.4 7-17.6-.5-17.7-3.5 0-6.3 1.4-10.4 5.3L38 39.4v-3c0-7.2-7.8-7.5-15.4-.5-2.6 2.4-2.8 2.4-2.2.5.5-1.7 0-2.7-2-4.3-3.1-2.4-6.4-2.8-6.4-.6 0 .8-2.8 7.1-6.2 13.9C.4 56.3-.3 58.3.6 60.7c1.7 5 3.8 3.9 8.6-4.4 2.7-4.6 7.2-10.4 11.1-14.1 10.3-9.8 10.9-8.3 3 7-3.8 7.4-4.4 9.1-3.6 11.5 1.8 5.2 4.4 4.1 8.8-3.9 4-7.2 15.9-20.8 18.3-20.8 2 0 1.4 2.2-3.3 11.9C41 53 39 57.8 39 58.6c0 2.6 3.8 5.4 7.4 5.4 2.6 0 4.5-1 8.5-4.6 4.4-4 5.1-4.3 5.1-2.4 0 1.1 1.1 3.2 2.5 4.5 3.3 3.4 8.4 3.3 12.3 0 1.7-1.4 3.8-2.5 4.8-2.5 1.1-.1 3.6-.7 5.7-1.4 3.5-1.3 3.7-1.2 3.7.6 0 3 1.9 5.8 3.9 5.8 1.3 0 2.6-1.9 4.5-6.3 3.9-9.2 19.6-25.9 19.6-20.8 0 .5-2 5.1-4.5 10.2-5.1 10.4-5.3 12.1-2.5 14.9 2.8 2.8 7 2.5 11.7-.9l3.9-2.8 1.7 2.8c2.6 4.6 7.2 4 13.6-1.7 4.2-3.7 5.1-4.2 5.1-2.6 0 1 .9 3.1 2.1 4.6 5.1 6.4 16.1.4 26.1-14.3 1-1.4 1.8-3 1.8-3.4 0-2.1-3.1.3-8.1 6.3-3 3.5-6.9 7.2-8.6 8.2-2.9 1.8-6.3 1.6-6.3-.3 0-.5 5-10.6 11.1-22.4l11-21.4 5.4-1.5c6.4-1.9 13.8-2.1 16.5-.4 2.4 1.5 3.4.6 2.5-2.1-.7-2.3-5.3-5.1-8.3-5.1-1 0-4.4.9-7.5 1.9l-5.7 2-2.9-3c-4-3.9-5.6-3.7-7 1.1-.9 3-2 4.4-3.9 5.1-5.6 2-10.2 4.2-10.2 4.9 0 .5 1.7.4 3.8-.1 2-.5 4.3-.9 5-.9 2.4 0-14.2 30-20.3 36.7-4.9 5.4-8.5 7.8-8.5 5.7 0-.8 4.9-10.4 8.4-16.4 1.4-2.5 2.6-5.3 2.6-6.2 0-1.8-4.8-6-6.2-5.6-.6.2-2.3 3.7-4 7.7-2.2 5.2-4.8 9.2-9.1 13.8-11 11.7-12.9 10.2-4.7-3.7 6.7-11.5 6.7-17-.3-17-3.6 0-6.3 1.4-10.6 5.4l-3.3 3.1 1.6-3.2c.9-1.7 4.9-5.6 8.9-8.6 14.6-11.1 20.8-22.9 13.8-26.6-2.8-1.6-3.3-1.4-7.9 1.9zm6.7 7.2c-3.4 4.9-9 11.2-12.8 14.4-3.3 2.8-3.4 2.8-2.1.4 3.5-6.8 10.4-16.1 13.3-17.9 3.9-2.5 4.6-1.2 1.6 3.1zM85.8 35.5c.5 3.6-2.1 10.2-5.9 15.5-2.5 3.4-3.3 3.9-4.5 3-3.5-3-.1-15.7 5.4-20 3.2-2.6 4.6-2.1 5 1.5zM73 59c-3.9 2.5-6.2.2-4.4-4.5.6-1.5 1-1.3 3.3.9 2.2 2.3 2.4 2.8 1.1 3.6z"
        fill="#4b96ff"
      />
      <path
        d="M141.5 17c-.3.5.2 3.5 1.1 6.6 1.5 5.3 1.7 5.5 4.2 4.9 5.1-1.2 8.7-4 9-6.8.3-2.4 0-2.7-2.7-2.7-1.6 0-3.3.4-3.6 1-1 1.6-2.1 1.1-3.3-1.5-1.2-2.5-3.6-3.3-4.7-1.5zM214.9 24.9c-1.6 1.6-2.9 4-2.9 5.3 0 1.3-2 5.3-4.5 9-5 7.5-5.1 7.8-3.1 7.8.8 0 2.5-1.7 3.8-3.8l2.3-3.7.3 3.2c.8 7.9-3.6 15.8-9.4 16.9l-3.6.7 2.1 2.1c3 3 9.7 2.6 15.9-1 7.5-4.3 17.8-16.1 15.8-18.1-.4-.4-3.2 2.1-6.2 5.5-3.1 3.4-5.9 6.2-6.2 6.2-.4 0-.7-1.2-.8-2.8 0-1.5-.4-5.9-.9-9.8l-.8-7 4.9-4.3 4.9-4.2-3-2.4c-3.9-3.2-5-3.1-8.6.4z"
        fill="#4b96ff"
      />
    </svg>
