<svg version="1.0" xmlns="http://www.w3.org/2000/svg"
 width="1000.000000pt" height="520.000000pt" viewBox="0 0 125.000000 65.000000"
 preserveAspectRatio="xMidYMid meet">

<g transform="translate(0.000000,65.000000) scale(0.100000,-0.100000)"
fill="rgb(106, 39, 159)" stroke="none">
<path d="M226 605 c-4 -20 -57 -135 -117 -258 -99 -197 -110 -226 -106 -261 7
-50 49 -96 74 -80 10 6 49 65 88 132 77 132 167 245 260 324 64 54 101 75 112
65 10 -10 -31 -104 -110 -256 -74 -142 -82 -174 -52 -231 18 -34 64 -52 77
-29 5 8 40 68 79 133 77 131 141 216 216 287 76 72 113 99 135 99 30 0 20 -28
-73 -215 -80 -161 -89 -196 -69 -249 12 -34 66 -66 109 -66 58 0 116 37 203
129 96 101 192 235 184 256 -9 24 -26 18 -59 -22 -160 -185 -257 -283 -282
-283 -41 0 -29 36 69 205 81 140 109 218 96 266 -16 54 -37 69 -97 69 -78 0
-117 -21 -201 -107 -48 -50 -71 -68 -66 -52 5 13 9 44 9 68 -1 61 -36 91 -108
91 -63 0 -104 -23 -184 -101 l-55 -54 16 38 c20 49 11 68 -52 108 -64 40 -88
39 -96 -6z"/>
</g>
</svg>